<?xml version="1.0" standalone="no"?><svg xmlns="http://www.w3.org/2000/svg" viewBox="0 0 1440 320"><path fill="#66668F" fill-opacity="1" d="M0,128L26.7,138.7C53.3,149,107,171,160,192C213.3,213,267,235,320,224C373.3,213,427,171,480,128C533.3,85,587,43,640,37.3C693.3,32,747,64,800,69.3C853.3,75,907,53,960,74.7C1013.3,96,1067,160,1120,160C1173.3,160,1227,96,1280,58.7C1333.3,21,1387,11,1413,5.3L1440,0L1440,320L1413.3,320C1386.7,320,1333,320,1280,320C1226.7,320,1173,320,1120,320C1066.7,320,1013,320,960,320C906.7,320,853,320,800,320C746.7,320,693,320,640,320C586.7,320,533,320,480,320C426.7,320,373,320,320,320C266.7,320,213,320,160,320C106.7,320,53,320,27,320L0,320Z"></path></svg>