<svg width="163" height="140" viewBox="0 0 163 140" fill="none" xmlns="http://www.w3.org/2000/svg">
<path d="M66.0416 0.152027C63.1587 0.61594 61.4688 1.2124 58.7515 2.60414C52.6213 5.78526 47.8827 10.9877 44.3371 18.5429C41.653 24.1761 40.6258 29.3123 41.0566 34.6473C41.6199 40.9764 44.2377 43.9918 51.3289 46.3445C60.7397 49.4594 70.1506 47.7363 75.7175 41.8379C76.7116 40.7776 77.5732 39.5184 77.772 38.7562C80.2241 30.2401 77.4738 4.42665 73.7293 0.914169C73.1329 0.350845 72.437 0.185162 70.3494 0.0526161C68.8914 -0.0467949 66.9694 0.0194817 66.0416 0.152027Z" fill="white"/>
<path d="M91.4905 0.152023C89.668 0.450253 88.9059 1.17926 88.0443 3.46569C85.9899 8.96637 84.6644 18.3109 84.6313 28.02C84.5981 38.2592 85.2277 40.4793 89.0716 43.4285C91.59 45.3504 94.5391 46.7422 97.6208 47.438C104.679 48.9955 115.647 46.4108 119.259 42.335C121.314 39.9823 121.976 37.8284 122.109 32.9905C122.241 29.3786 122.142 28.4176 121.413 25.601C118.795 15.3286 112.102 6.41485 104.082 2.37218C100.636 0.649075 94.7048 -0.411301 91.4905 0.152023Z" fill="white"/>
<path d="M23.9249 36.6355C20.6444 37.497 19.4183 38.0604 16.3035 40.1148C11.83 43.0971 7.15776 48.6641 4.27487 54.463C1.45826 60.0631 -0.264847 67.552 0.0333831 72.7544C0.298476 77.2942 1.2263 79.7463 3.54587 82.0327C5.40152 83.8552 7.75422 84.9819 11.6975 85.976C19.2858 87.8979 27.835 85.247 34.3298 78.951C37.5772 75.803 38.1405 73.6491 38.1405 64.4703C38.1405 58.0418 37.776 53.9328 36.7157 47.5374C35.5559 40.645 34.0979 36.9337 32.3085 36.3041C30.7842 35.7739 26.5427 35.9396 23.9249 36.6355Z" fill="white"/>
<path d="M130.459 36.2047C128.537 36.5029 127.179 39.3858 125.886 45.7481C124.263 53.7671 123.567 67.6514 124.528 72.7213C125.058 75.6705 125.787 76.9628 128.305 79.2824C135.629 86.1416 143.88 88.1961 152.727 85.3795C154.45 84.8162 156.571 83.8884 157.399 83.3582C162.668 79.8457 163.762 70.7 160.15 59.9306C158.228 54.1648 155.279 49.0949 151.402 44.8534C145.503 38.4249 137.484 35.1112 130.459 36.2047Z" fill="white"/>
<path d="M78.2028 53.734C71.8074 55.5234 63.8214 60.2619 56.8959 66.3259C53.8804 68.9437 46.0933 77.3936 41.7856 82.6954C35.4565 90.4494 31.712 97.3087 30.0221 104.135C28.9617 108.476 29.028 114.507 30.2209 118.98C33.0044 129.683 39.7642 136.344 50.865 139.392C53.0852 140.022 53.9799 140.088 57.2604 139.922C59.348 139.823 63.1587 139.359 65.7102 138.895C68.2618 138.464 72.6027 137.669 75.3199 137.205C81.5496 136.079 83.9023 136.178 95.0362 137.967C109.583 140.32 112.433 140.453 116.674 138.928C120.783 137.437 123.799 135.449 127.344 131.903C130.857 128.391 132.249 126.27 133.342 122.625C134.237 119.742 134.237 109.569 133.342 105.593C131.155 95.453 126.88 87.8648 116.774 76.1012C107.761 65.5969 97.0906 57.5447 87.9118 54.3636C84.6644 53.2369 80.8205 52.9718 78.2028 53.734Z" fill="white"/>
</svg>
