<svg width="116" height="141" viewBox="0 0 116 141" fill="none" xmlns="http://www.w3.org/2000/svg">
<path d="M19.862 0.815765C19.8162 0.976044 19.6102 2.14368 19.4041 3.38C18.9691 6.21896 17.9617 9.26398 16.7025 11.6222L15.7409 13.4537L13.1767 14.9648C8.25431 17.9182 5.43824 20.4138 4.04165 23.0925C3.08007 24.947 2.78243 26.252 2.82822 28.7704C2.85112 31.4033 2.39322 33.441 1.17979 36.0052C0.653211 37.0813 0.149523 38.2489 0.057944 38.5694C-0.171005 39.3021 0.309788 40.4697 0.950844 40.836C1.22558 40.9734 1.43164 41.2481 1.43164 41.4771C1.43164 42.1181 2.71375 44.1329 3.62955 44.9571C4.95745 46.1018 7.4072 47.155 10.3377 47.819C14.2986 48.7347 14.1841 48.6661 14.7107 50.3832C15.5578 53.1306 15.2601 54.4585 12.673 59.4267C9.71958 65.0817 8.84958 68.6304 9.05563 74.1252C9.23879 79.2536 9.97143 82.1842 13.7033 92.4182C17.4581 102.721 18.7402 107.941 18.992 114.1C19.1981 119.251 18.557 123.761 16.8399 129.256L16.0157 131.935H14.3672C11.7572 131.912 10.063 132.919 9.07853 135.048C8.41458 136.468 8.39168 137.201 9.00984 138.391C9.37616 139.124 9.76537 139.444 10.7727 139.925C12.032 140.52 12.1922 140.543 16.3133 140.543C18.6486 140.543 20.8236 140.475 21.167 140.36C22.1515 140.085 23.3878 138.872 24.0747 137.475C24.441 136.766 25.2423 134.384 25.8834 132.141C27.3257 127.15 28.4247 124.15 29.6839 121.769C30.2334 120.762 30.8287 119.411 31.0576 118.793C31.5842 117.19 31.8589 113.733 31.8589 109.017C31.8589 104.598 32.1795 102.469 33.1868 99.9964C33.9882 98.0732 35.774 95.715 37.5598 94.2956C39.025 93.1279 42.8027 90.8384 42.9858 91.0216C43.0316 91.0674 42.4135 91.5024 41.5893 91.9832C39.4829 93.2195 36.6669 95.944 35.4076 98.0045C31.8131 103.751 31.9505 111.306 35.7969 118.404C37.9261 122.388 41.5664 126.577 45.2753 129.302C46.2827 130.057 47.1527 130.698 47.1985 130.744C47.6106 131.065 46.008 131.156 39.8264 131.156C32.7976 131.156 32.6603 131.156 31.3095 131.706C28.1042 132.988 24.7844 138.345 26.2726 139.811C26.4557 140.017 27.3715 140.223 28.4934 140.337C29.5465 140.452 43.7872 140.52 60.157 140.475C89.5769 140.429 89.9432 140.429 91.3398 139.948C96.8346 138.116 103.131 130.332 107.298 120.167C108.397 117.442 109.473 113.665 110.114 110.208C110.686 107.071 110.686 97.6382 110.114 93.9521C109.289 88.6863 108.19 84.4279 104.825 73.3467C103.222 68.0809 102.513 64.5551 102.719 62.838C103.108 59.4953 104.779 58.0988 109.015 57.5493C111.625 57.2059 113.182 56.5877 114.166 55.4887C118.196 51.0242 109.839 40.3323 101.276 38.9815C96.0333 38.1802 92.0038 41.3168 89.9661 47.819C88.8672 51.3219 88.6153 55.2598 89.2335 59.0374C89.9661 63.6393 91.5001 67.8978 95.7585 77.2389C101.299 89.4418 102.925 95.1198 102.925 102.423C102.902 111.673 99.3759 123.418 95.3235 127.676C94.3391 128.729 92.599 129.668 91.6375 129.668C91.2711 129.668 90.9506 129.645 90.9506 129.599C90.9506 129.577 91.1567 128.478 91.4085 127.173C93.7438 115.153 94.133 104.346 92.4617 97.0429C91.0422 90.8842 88.2261 85.4352 83.6471 79.9405C82.6169 78.727 79.2971 75.3157 76.2521 72.3852C62.8815 59.5182 59.4015 55.9466 54.7309 50.2229C49.7398 44.1558 47.5648 40.9047 46.6719 38.2718C46.4888 37.6765 45.9622 35.387 45.5043 33.1662C45.0693 30.9454 44.3824 28.2896 43.9932 27.2822C42.4135 23.1841 38.7274 18.9027 33.4387 14.9877L30.5539 12.8814L30.4166 11.7366C29.8671 7.68423 26.3871 2.62447 23.0673 1.09052C21.831 0.495239 20.0223 0.35788 19.862 0.815765Z" fill="white"/>
</svg>
