<svg width="148" height="141" viewBox="0 0 148 141" fill="none" xmlns="http://www.w3.org/2000/svg">
<path d="M25.1424 2.17599C20.7257 4.41306 20.4389 4.75722 16.4236 12.042C15.6779 13.4186 14.0145 14.5085 9.25357 16.8603C5.81195 18.4664 2.37032 20.0725 1.62463 20.4166C-0.0961829 21.1049 -0.497706 22.9978 0.649503 24.8334C1.10839 25.5791 1.91143 27.472 2.42768 29.1354C3.63225 32.7491 5.23834 34.9288 7.59012 35.9613C8.56525 36.4202 10.114 37.338 10.9744 38.0836C12.4084 39.1735 13.2114 39.3456 17.284 39.2309C19.8653 39.1735 23.4216 38.7146 25.1424 38.2557C28.8135 37.2806 29.3871 37.4527 26.9206 38.772C24.9703 39.7471 24.8556 39.9192 25.716 40.9517C26.0602 41.3532 26.6338 42.0989 27.0353 42.6151C27.6663 43.5329 28.0104 43.5329 31.7389 42.7872C37.1881 41.64 45.5628 37.4527 49.4633 33.839C51.2414 32.2329 52.6754 31.143 52.6754 31.4872C52.6754 31.774 50.9546 33.6669 48.7749 35.6745C44.5876 39.6324 39.3678 42.6725 32.5419 45.0816L28.1825 46.6304L27.8384 50.1293C27.6663 52.0796 26.4617 57.0126 25.1998 61.1426C22.6759 69.0583 22.3318 72.3278 23.6511 75.4253C24.5115 77.5476 33.8039 91.4289 34.0907 91.0847C34.2054 91.0274 33.9186 89.536 33.5171 87.8152C33.0582 86.0944 32.5419 83.6279 32.3125 82.3659C31.6815 78.5228 32.9434 80.8172 34.148 85.8076C34.779 88.3314 36.5572 94.2395 38.1059 99.0005L40.8592 107.605L40.9166 117.643C40.9166 123.149 40.7445 128.312 40.515 129.115C40.2856 129.918 39.1957 131.008 37.9912 131.696C35.3526 133.13 34.0907 134.965 34.5495 136.801C35.2379 139.669 36.213 140.013 43.1536 140.013C48.7749 140.013 49.7501 139.898 50.8399 138.866C52.5607 137.26 53.2491 134.22 53.2491 127.967C53.2491 121.314 53.88 115.176 55.945 102.155C57.7232 90.7979 58.2968 91.1421 57.2643 102.844L56.576 110.759L59.3866 113.857C62.7135 117.471 68.1054 124.526 69.9983 127.681L71.2602 129.86L69.8262 129.516C69.0806 129.287 66.6714 128.771 64.5491 128.426C59.8455 127.566 58.2968 128.197 56.2892 131.696C54.7404 134.449 54.6257 137.145 56.0024 138.809L56.9775 140.071L89.3862 139.898C125.409 139.669 124.376 139.784 132.751 135.539C142.1 130.836 147.894 119.249 147.148 106.629C146.861 101.352 145.141 96.5913 142.789 94.469C140.953 92.8055 140.552 93.7807 141.355 97.9106C143.707 110.415 135.447 124.87 124.032 128.312C122.541 128.771 121.221 129.057 121.164 128.943C121.049 128.828 121.623 126.82 122.483 124.469C124.491 118.847 124.95 109.956 123.573 104.45C121.565 96.5913 118.353 90.2817 113.076 83.6279C110.265 80.1289 97.0725 67.9685 84.912 57.7009C82.3308 55.4639 79.0613 52.2517 77.6846 50.4735C76.308 48.6953 73.0958 45.6552 70.5146 43.705C63.1724 38.0836 58.3541 30.1679 55.0272 18.2369C52.9049 10.4359 51.4709 7.56789 48.5455 4.92929C44.8171 1.48767 41.777 0.455185 35.1805 0.168381C29.4445 -0.0610657 29.4445 -0.0610657 25.1424 2.17599ZM32.7714 18.8105C33.2303 19.6709 34.0333 21.908 34.5495 23.6862C35.6968 27.7014 37.647 29.4796 39.9414 28.6765C43.0389 27.5867 47.8572 23.2273 49.4633 20.0725C50.5531 17.8354 50.8973 17.4339 50.6678 18.6958C49.9795 22.1374 47.2262 26.0953 44.014 28.275C39.8267 31.143 37.5896 31.6019 35.6968 29.8237C33.9186 28.1603 30.3622 17.4339 30.0181 12.5009L29.7313 8.94453L30.8211 13.0745C31.4521 15.3115 32.3125 17.8928 32.7714 18.8105ZM24.2247 13.3039C24.8556 13.8775 23.5937 15.541 22.5038 15.541C22.045 15.541 21.7008 15.1968 21.7008 14.7379C21.7008 14.2791 21.5287 13.476 21.2993 12.9598C21.0125 12.1567 21.1846 12.042 22.3318 12.3862C23.0774 12.6156 23.9379 13.0171 24.2247 13.3039ZM3.40281 23.7435C2.8292 24.2598 2.77184 24.2024 3.116 23.3994C3.28808 22.8258 3.63225 22.539 3.80433 22.711C3.97641 22.8831 3.80433 23.342 3.40281 23.7435ZM90.3613 87.2989C92.1968 87.9873 94.0897 88.905 94.5486 89.3639C95.2943 90.167 95.2943 90.2243 94.5486 89.9375C84.3958 86.1517 76.8242 87.6431 72.3501 94.3543C68.3349 100.32 68.0481 106.056 71.375 116.897C71.5471 117.471 71.1455 117.012 70.5146 115.922C67.245 110.3 66.1552 102.041 67.9907 96.6487C69.31 92.8055 73.9562 88.1593 77.6846 87.0121C81.7572 85.8076 86.4608 85.8649 90.3613 87.2989Z" fill="white"/>
</svg>
