<svg width="18" height="33" viewBox="0 0 18 33" fill="none" xmlns="http://www.w3.org/2000/svg">
<path d="M11.4762 0.100734C8.93598 0.468231 6.93731 1.84796 5.87995 3.96268C5.11917 5.49714 4.96443 6.432 4.96443 9.61053V11.8606H2.77879C1.5667 11.8606 0.515785 11.8864 0.43197 11.9187C0.341708 11.9574 0.206314 12.0476 0.135394 12.125C0 12.2668 0 12.312 0 15.239C0 17.9598 0.0128946 18.2241 0.116052 18.3466C0.335261 18.6239 0.419076 18.6303 2.73366 18.6303H4.96443V25.5934V32.5565L5.15141 32.7628L5.33838 32.9756L8.34283 32.9949C10.9927 33.0078 11.3731 33.0014 11.5471 32.9111C11.9469 32.7048 11.9275 33.0272 11.9275 25.4967V18.6303H14.5065C16.3633 18.6303 17.1241 18.611 17.2466 18.553C17.6012 18.3918 17.6012 18.366 17.6012 15.2197V12.312L17.4142 12.1056L17.2272 11.8929L14.5709 11.8735L11.9211 11.8542L11.9404 9.77171L11.9598 7.69567L12.1532 7.31528C12.366 6.90265 12.7206 6.62542 13.1977 6.49647C13.3331 6.45779 14.2873 6.41911 15.3124 6.40621C16.344 6.38687 17.253 6.36108 17.3304 6.34174C17.4142 6.3224 17.556 6.23213 17.6399 6.14187L17.7946 5.97424V3.189C17.7946 0.455336 17.7946 0.403758 17.6592 0.261917C17.5883 0.184549 17.4529 0.0942866 17.3626 0.0556027C17.1047 -0.041107 12.1983 -0.00242313 11.4762 0.100734Z" fill="white"/>
</svg>
