<svg 
xmlns="http://www.w3.org/2000/svg" 
xmlns:xlink="http://www.w3.org/1999/xlink" 
width="1080" 
zoomAndPan="magnify" 
viewBox="0 0 810 809.999993" 
height="1080"
 preserveAspectRatio="xMidYMid meet" 
 version="1.0">
 <path 
 fill="none" 
 d="M 699.117188 334.65625 C 695.253906 322.675781 684.644531 314.199219 672.078125 313.039062 L 501.429688 297.53125 L 433.953125 139.515625 C 428.984375 127.949219 417.652344 120.476562 405.058594 120.476562 C 392.464844 120.476562 381.132812 127.972656 376.160156 139.566406 L 308.683594 297.554688 L 138.011719 313.066406 C 125.46875 314.199219 114.859375 322.675781 110.996094 334.65625 C 107.109375 346.636719 110.714844 359.75 120.191406 368.046875 L 249.195312 481.203125 L 211.15625 648.804688 C 208.375 661.117188 213.164062 673.847656 223.386719 681.265625 C 228.847656 685.285156 235.3125 687.292969 241.777344 687.292969 C 247.363281 687.292969 252.929688 685.800781 257.898438 682.8125 L 405.058594 594.773438 L 552.191406 682.785156 C 562.957031 689.253906 576.527344 688.6875 586.726562 681.292969 C 596.953125 673.871094 601.742188 661.144531 598.960938 648.828125 L 560.921875 481.230469 L 689.925781 368.074219 C 699.402344 359.777344 703.007812 346.664062 699.117188 334.65625 Z M 699.117188 334.65625 " fill-opacity="1" fill-rule="nonzero"/><path fill="#fac942" d="M 234.382812 700.152344 C 227.585938 700.152344 220.863281 698.039062 215.121094 693.890625 C 204.433594 686.160156 199.4375 672.839844 202.347656 659.957031 L 242.109375 484.761719 L 107.261719 366.449219 C 97.347656 357.765625 93.5625 344.085938 97.628906 331.539062 C 101.699219 319.019531 112.773438 310.128906 125.882812 308.917969 L 304.332031 292.710938 L 374.847656 127.5625 C 380.050781 115.425781 391.898438 107.59375 405.058594 107.59375 C 418.21875 107.59375 430.066406 115.425781 435.265625 127.535156 L 505.78125 292.710938 L 684.207031 308.917969 C 697.339844 310.101562 708.414062 318.992188 712.484375 331.511719 C 716.554688 344.0625 712.792969 357.765625 702.851562 366.425781 L 568.03125 484.707031 L 607.792969 659.90625 C 610.703125 672.789062 605.707031 686.109375 595.019531 693.839844 C 584.382812 701.542969 570.191406 702.1875 558.9375 695.4375 L 405.058594 603.457031 L 251.203125 695.488281 C 246 698.605469 240.207031 700.152344 234.382812 700.152344 Z M 405.058594 563.832031 C 410.902344 563.832031 416.699219 565.402344 421.902344 568.496094 L 567.101562 655.371094 L 529.578125 489.992188 C 526.898438 478.191406 530.890625 465.925781 539.984375 457.964844 L 667.3125 346.226562 L 498.855469 330.921875 C 486.773438 329.839844 476.320312 322.238281 471.582031 311.03125 L 405.058594 155.179688 L 338.484375 311.054688 C 333.769531 322.210938 323.3125 329.8125 311.210938 330.894531 L 142.777344 346.199219 L 270.105469 457.941406 C 279.222656 465.902344 283.1875 478.191406 280.511719 489.992188 L 242.988281 655.371094 L 388.1875 568.496094 C 393.417969 565.402344 399.210938 563.832031 405.058594 563.832031 Z M 302.941406 295.933594 L 302.941406 295.957031 Z M 507.148438 295.855469 L 507.148438 295.882812 C 507.148438 295.882812 507.148438 295.882812 507.148438 295.855469 Z M 507.148438 295.855469 " fill-opacity="100" fill-rule="nonzero"/></svg>