<svg width="33" height="33" viewBox="0 0 33 33" fill="none" xmlns="http://www.w3.org/2000/svg">
<path d="M16.5 2.97303C20.9057 2.97303 21.4275 2.9898 23.1674 3.06918C24.7761 3.1426 25.6497 3.4114 26.2312 3.6373C27.0013 3.93662 27.5511 4.29424 28.1284 4.87159C28.7058 5.44895 29.0634 5.99866 29.3626 6.76877C29.5886 7.35025 29.8574 8.22392 29.9308 9.83258C30.0102 11.5725 30.027 12.0943 30.027 16.5C30.027 20.9057 30.0102 21.4276 29.9308 23.1674C29.8574 24.7761 29.5886 25.6498 29.3626 26.2313C29.0634 27.0014 28.7058 27.5511 28.1284 28.1285C27.5511 28.7058 27.0013 29.0634 26.2312 29.3627C25.6497 29.5887 24.7761 29.8575 23.1674 29.9309C21.4278 30.0103 20.9059 30.027 16.5 30.027C12.094 30.027 11.5722 30.0103 9.83258 29.9309C8.22385 29.8575 7.35019 29.5887 6.76877 29.3627C5.99859 29.0634 5.44888 28.7058 4.87153 28.1285C4.29417 27.5511 3.93656 27.0014 3.6373 26.2313C3.41134 25.6498 3.14254 24.7762 3.06912 23.1675C2.98973 21.4276 2.97297 20.9057 2.97297 16.5C2.97297 12.0943 2.98973 11.5725 3.06912 9.83265C3.14254 8.22392 3.41134 7.35025 3.6373 6.76877C3.93656 5.99866 4.29417 5.44895 4.87153 4.87159C5.44888 4.29424 5.99859 3.93662 6.76877 3.6373C7.35019 3.4114 8.22385 3.1426 9.83252 3.06918C11.5724 2.9898 12.0943 2.97303 16.5 2.97303ZM16.5 0C12.0188 0 11.457 0.0189941 9.69707 0.0992932C7.94077 0.179461 6.74139 0.458347 5.69181 0.866261C4.60679 1.28793 3.68662 1.85212 2.76934 2.7694C1.85205 3.68669 1.28786 4.60685 0.866196 5.69187C0.458281 6.74146 0.179396 7.94084 0.0992277 9.69714C0.0189286 11.457 0 12.0189 0 16.5C0 20.9812 0.0189286 21.5431 0.0992277 23.3029C0.179396 25.0592 0.458281 26.2586 0.866196 27.3082C1.28786 28.3931 1.85205 29.3134 2.76934 30.2307C3.68662 31.1479 4.60679 31.7121 5.69181 32.1338C6.74139 32.5417 7.94077 32.8206 9.69707 32.9008C11.457 32.9811 12.0188 33 16.5 33C20.9811 33 21.543 32.9811 23.3029 32.9008C25.0592 32.8206 26.2585 32.5417 27.3081 32.1338C28.3931 31.7121 29.3133 31.1479 30.2306 30.2307C31.1479 29.3134 31.7121 28.3932 32.1337 27.3082C32.5417 26.2586 32.8205 25.0592 32.9007 23.3029C32.981 21.5431 33 20.9812 33 16.5C33 12.0189 32.981 11.457 32.9007 9.69714C32.8205 7.94084 32.5417 6.74146 32.1337 5.69187C31.7121 4.60685 31.1479 3.68669 30.2306 2.7694C29.3133 1.85212 28.3931 1.28793 27.3081 0.866261C26.2585 0.458347 25.0592 0.179461 23.3029 0.0992932C21.543 0.0189941 20.9811 0 16.5 0ZM16.5 8.02703C11.8205 8.02703 8.02697 11.8205 8.02697 16.5C8.02697 21.1795 11.8205 24.973 16.5 24.973C21.1795 24.973 24.973 21.1795 24.973 16.5C24.973 11.8205 21.1795 8.02703 16.5 8.02703ZM16.5 22.0001C13.4624 22.0001 10.9999 19.5376 10.9999 16.5C10.9999 13.4625 13.4624 11 16.5 11C19.5375 11 22 13.4625 22 16.5C22 19.5376 19.5375 22.0001 16.5 22.0001ZM27.2877 7.69228C27.2877 8.78581 26.4013 9.67231 25.3077 9.67231C24.2142 9.67231 23.3277 8.78581 23.3277 7.69228C23.3277 6.59874 24.2142 5.71231 25.3077 5.71231C26.4013 5.71231 27.2877 6.59874 27.2877 7.69228Z" fill="white"/>
</svg>
