<svg width="314" height="60" viewBox="0 0 314 60" fill="none" xmlns="http://www.w3.org/2000/svg">
<path d="M50.16 2.44C51.4933 11.4533 52.7467 20.4933 53.92 29.56C55.0933 38.5733 56.24 47.6933 57.36 56.92C55.9733 58.4667 54.2933 59.24 52.32 59.24C50.9333 59.24 49.6267 58.8667 48.4 58.12C47.1733 57.3733 46.24 56.36 45.6 55.08C46.08 53.5333 46.4 51.96 46.56 50.36C46.7733 48.7067 46.88 47.0267 46.88 45.32C46.88 43.24 46.7467 41.1333 46.48 39C46.2667 36.8133 45.9733 34.6533 45.6 32.52C45.28 30.3333 44.9333 28.1733 44.56 26.04C44.24 23.9067 43.9733 21.8 43.76 19.72C42.0533 19.8267 40.6933 20.3067 39.68 21.16C38.72 21.96 37.9467 23 37.36 24.28C36.8267 25.5067 36.4 26.8667 36.08 28.36C35.76 29.8 35.36 31.2133 34.88 32.6C34.4533 33.9867 33.8933 35.24 33.2 36.36C32.5067 37.48 31.4933 38.28 30.16 38.76C28.08 38.2267 26.2667 37.4533 24.72 36.44C23.2267 35.3733 21.7867 34.2533 20.4 33.08C19.0133 31.9067 17.6 30.76 16.16 29.64C14.72 28.52 13.04 27.64 11.12 27C10.5867 28.3867 10.32 29.8533 10.32 31.4C10.32 33.1067 10.56 34.84 11.04 36.6C11.52 38.3067 12.0533 40.04 12.64 41.8C13.28 43.5067 13.84 45.1867 14.32 46.84C14.8 48.44 15.04 49.9867 15.04 51.48C15.04 52.7067 14.8 53.8533 14.32 54.92C13.8933 55.9333 13.1467 56.8933 12.08 57.8C11.76 57.8533 11.44 57.88 11.12 57.88C10.8533 57.9333 10.5867 57.96 10.32 57.96C8.66667 57.96 7.41333 57.5333 6.56 56.68C5.76 55.8267 5.17333 54.76 4.8 53.48C4.48 52.2 4.26667 50.8133 4.16 49.32C4.10667 47.7733 4 46.36 3.84 45.08C3.78667 44.6533 3.73333 44.2 3.68 43.72C3.62667 43.24 3.54667 42.76 3.44 42.28C3.12 39.9867 2.8 37.56 2.48 35C2.16 32.3867 1.84 29.7733 1.52 27.16C1.25333 24.4933 1.04 21.8533 0.88 19.24C0.72 16.5733 0.64 14.04 0.64 11.64C0.64 10.1467 0.666667 8.70666 0.72 7.32C0.773333 5.93333 0.906667 4.62667 1.12 3.4C1.44 3.50666 1.62667 3.56 1.68 3.56C2 3.56 2.29333 3.45333 2.56 3.24C2.88 3.02666 3.14667 2.81333 3.36 2.6C3.62667 2.33333 3.86667 2.09333 4.08 1.88C4.34667 1.66667 4.58667 1.56 4.8 1.56H5.36C7.01333 1.56 8.21333 2.06667 8.96 3.08C9.76 4.04 10.3733 5.24 10.8 6.68C11.2267 8.12 11.6267 9.69333 12 11.4C12.3733 13.1067 12.9867 14.68 13.84 16.12C14.32 16.8667 14.96 17.6667 15.76 18.52C16.56 19.32 17.44 20.0933 18.4 20.84C19.36 21.5333 20.2933 22.12 21.2 22.6C22.16 23.08 23.0133 23.32 23.76 23.32C25.52 23.32 27.0133 22.92 28.24 22.12C29.52 21.32 30.64 20.28 31.6 19C32.56 17.6667 33.44 16.2 34.24 14.6C35.04 12.9467 35.84 11.2933 36.64 9.64C37.4933 7.93333 38.4 6.30666 39.36 4.76C40.3733 3.16 41.5467 1.8 42.88 0.679996C43.1467 0.626663 43.4133 0.599997 43.68 0.599997C43.9467 0.546664 44.2133 0.519998 44.48 0.519998C45.7067 0.519998 46.7467 0.733331 47.6 1.16C48.4533 1.58666 49.3067 2.01333 50.16 2.44ZM90.9663 57.24C89.5796 57.1867 88.4863 56.84 87.6863 56.2C86.9396 55.5067 86.3263 54.68 85.8463 53.72C85.4196 52.76 85.0463 51.72 84.7263 50.6C84.4596 49.4267 84.1129 48.3333 83.6863 47.32C82.1396 47.96 80.8596 48.76 79.8463 49.72C78.8863 50.6267 77.9529 51.5333 77.0463 52.44C76.1396 53.2933 75.1529 54.04 74.0863 54.68C73.0729 55.2667 71.7929 55.56 70.2463 55.56C70.0863 55.56 69.8996 55.56 69.6863 55.56C69.5263 55.5067 69.3396 55.48 69.1263 55.48C67.4196 55.32 65.9263 54.7867 64.6463 53.88C63.3663 52.92 62.2996 51.7467 61.4463 50.36C60.5929 48.9733 59.9263 47.4267 59.4463 45.72C59.0196 43.96 58.8063 42.1733 58.8063 40.36C58.8063 37.64 59.2863 35.0267 60.2463 32.52C61.2063 30.0133 62.6729 27.9867 64.6463 26.44C66.0863 26.44 67.5529 26.2533 69.0463 25.88C70.5396 25.4533 72.0329 25.0267 73.5263 24.6C75.0196 24.12 76.4596 23.6933 77.8463 23.32C79.2863 22.9467 80.6196 22.76 81.8463 22.76C83.2329 22.76 84.4596 23.1067 85.5263 23.8C86.5929 24.44 87.4729 25.6133 88.1663 27.32C88.3796 27.8 88.4863 28.4667 88.4863 29.32C88.4863 30.2267 88.4063 31.1867 88.2463 32.2C88.1396 33.16 88.0863 34.12 88.0863 35.08C88.0863 35.3467 88.0863 35.5867 88.0863 35.8C88.0863 36.0133 88.1129 36.2267 88.1663 36.44C88.3796 37.88 88.8329 39.4 89.5263 41C90.2196 42.6 90.9129 44.1733 91.6063 45.72C92.3529 47.2667 93.0196 48.7333 93.6063 50.12C94.1929 51.5067 94.4863 52.7333 94.4863 53.8C94.4863 54.7067 94.2196 55.4533 93.6863 56.04C93.2063 56.6267 92.2996 57.0267 90.9663 57.24ZM68.2463 47.32C71.4463 46.8933 73.9263 45.7467 75.6863 43.88C77.4996 42.0133 78.9663 39.8267 80.0863 37.32C79.4463 35.8267 78.6196 34.76 77.6063 34.12C76.5929 33.48 75.5263 33.16 74.4063 33.16C73.3929 33.16 72.3796 33.4 71.3663 33.88C70.4063 34.3067 69.5263 34.92 68.7263 35.72C67.9796 36.52 67.3663 37.4533 66.8863 38.52C66.4063 39.5867 66.1663 40.7067 66.1663 41.88C66.1663 42.7867 66.3263 43.6933 66.6463 44.6C66.9663 45.5067 67.4996 46.4133 68.2463 47.32ZM117.168 25.4C117.541 26.68 117.728 27.7733 117.728 28.68C117.728 29.96 117.408 30.9733 116.768 31.72C116.128 32.4667 115.355 33.4 114.448 34.52C116.155 35.1067 117.728 35.6933 119.168 36.28C120.661 36.8667 121.941 37.56 123.008 38.36C124.075 39.1067 124.901 40.0133 125.488 41.08C126.075 42.1467 126.368 43.48 126.368 45.08C126.368 45.2933 126.341 45.5067 126.288 45.72C126.288 45.88 126.288 46.0667 126.288 46.28C126.128 47.88 125.621 49.32 124.768 50.6C123.968 51.8267 122.901 52.8667 121.568 53.72C120.288 54.5733 118.848 55.24 117.248 55.72C115.648 56.1467 114.021 56.36 112.368 56.36C109.808 56.36 107.408 55.8533 105.168 54.84C102.928 53.7733 101.195 52.12 99.9681 49.88C100.128 49.56 100.261 49.1867 100.368 48.76C100.475 48.28 100.555 47.8 100.608 47.32C100.661 46.84 100.688 46.3867 100.688 45.96C100.741 45.5333 100.768 45.2133 100.768 45C100.768 44.0933 100.501 43.4 99.9681 42.92C99.4348 42.44 98.8215 41.9867 98.1281 41.56C97.4881 41.1333 96.8748 40.6267 96.2881 40.04C95.7548 39.4 95.4615 38.4667 95.4081 37.24V36.76C95.4081 35.1067 95.8348 33.48 96.6881 31.88C97.5415 30.2267 98.6615 28.76 100.048 27.48C101.488 26.1467 103.088 25.08 104.848 24.28C106.661 23.4267 108.501 23 110.368 23C111.541 23 112.688 23.1867 113.808 23.56C114.981 23.9333 116.101 24.5467 117.168 25.4ZM115.328 46.28V44.44H109.008V46.28H115.328ZM107.568 35.32L108.608 34.04L104.528 33.72V34.76L107.568 35.32ZM152.435 33.96C151.528 35.08 150.355 35.64 148.915 35.64C147.742 35.64 146.515 35.4267 145.235 35C143.955 34.52 142.728 34.1733 141.555 33.96C139.902 34.6 138.702 35.56 137.955 36.84C137.208 38.12 136.835 39.4533 136.835 40.84C136.835 42.5467 137.315 44.1467 138.275 45.64C139.288 47.08 140.675 48.0133 142.435 48.44C142.968 48.6 143.555 48.68 144.195 48.68C145.475 48.68 146.755 48.44 148.035 47.96C149.315 47.4267 150.542 46.8667 151.715 46.28C152.942 45.64 154.088 45.08 155.155 44.6C156.222 44.0667 157.208 43.8 158.115 43.8C158.382 43.8 158.595 43.8267 158.755 43.88C159.608 43.88 160.248 44.0933 160.675 44.52C161.155 44.8933 161.475 45.4 161.635 46.04C161.848 46.68 161.982 47.3733 162.035 48.12C162.142 48.8667 162.275 49.5867 162.435 50.28C160.408 52.3067 157.902 53.88 154.915 55C151.928 56.12 148.835 56.68 145.635 56.68C142.702 56.68 139.902 56.1733 137.235 55.16C134.568 54.1467 132.382 52.52 130.675 50.28C130.355 48.04 129.928 45.9333 129.395 43.96C128.915 41.9867 128.675 40.0667 128.675 38.2C128.675 37.0267 128.808 35.88 129.075 34.76C129.395 33.64 129.928 32.4667 130.675 31.24C131.262 30.28 132.008 29.4267 132.915 28.68C133.875 27.88 134.915 27.1867 136.035 26.6C137.155 26.0133 138.328 25.56 139.555 25.24C140.835 24.92 142.088 24.76 143.315 24.76C144.488 24.76 145.608 24.9467 146.675 25.32C147.795 25.64 148.782 26.1733 149.635 26.92C150.488 27.6133 151.155 28.5467 151.635 29.72C152.168 30.8933 152.435 32.3067 152.435 33.96ZM192.978 24.68C193.191 24.6267 193.404 24.6 193.618 24.6C193.831 24.6 194.044 24.6 194.258 24.6C196.231 24.6 198.018 25.0267 199.618 25.88C201.218 26.7333 202.578 27.8533 203.698 29.24C204.871 30.5733 205.778 32.12 206.418 33.88C207.058 35.5867 207.378 37.32 207.378 39.08C207.378 40.7333 207.111 42.28 206.578 43.72C206.258 44.52 205.644 45.4267 204.738 46.44C203.831 47.4533 202.711 48.52 201.378 49.64C200.044 50.7067 198.578 51.7467 196.978 52.76C195.431 53.7733 193.831 54.7067 192.178 55.56C190.578 56.36 188.978 57 187.378 57.48C185.831 57.96 184.444 58.2 183.218 58.2C180.498 58.2 178.098 57.5867 176.018 56.36C173.991 55.08 172.311 53.4533 170.978 51.48C169.644 49.4533 168.631 47.2133 167.938 44.76C167.298 42.2533 166.978 39.7733 166.978 37.32C166.978 36.4133 167.004 35.5067 167.058 34.6C167.164 33.6933 167.324 32.8133 167.538 31.96C167.804 30.7867 168.524 29.48 169.698 28.04C170.924 26.5467 172.364 25.1867 174.018 23.96C175.724 22.68 177.564 21.6133 179.538 20.76C181.511 19.9067 183.431 19.48 185.298 19.48C186.898 19.48 188.364 19.88 189.698 20.68C191.084 21.48 192.178 22.8133 192.978 24.68ZM178.418 47.32C179.271 47.5333 180.098 47.6933 180.898 47.8C181.698 47.9067 182.498 47.96 183.298 47.96C185.271 47.96 187.138 47.6667 188.898 47.08C190.658 46.44 192.231 45.5867 193.618 44.52C195.004 43.4 196.178 42.0933 197.138 40.6C198.151 39.0533 198.871 37.3733 199.298 35.56C198.338 34.4933 197.031 33.7467 195.378 33.32C193.778 32.8933 192.044 32.5733 190.178 32.36C188.364 32.1467 186.578 31.9333 184.818 31.72C183.058 31.4533 181.538 30.92 180.258 30.12C178.711 30.92 177.591 32.0933 176.898 33.64C176.258 35.1867 175.938 36.84 175.938 38.6C175.938 40.1467 176.151 41.6933 176.578 43.24C177.058 44.7333 177.671 46.0933 178.418 47.32ZM221.304 12.04C222.264 12.8933 222.878 13.88 223.144 15C223.464 16.0667 223.624 17.2133 223.624 18.44C223.624 19.24 223.598 20.04 223.544 20.84C223.491 21.64 223.464 22.4667 223.464 23.32C223.464 24.0667 223.491 24.7867 223.544 25.48C223.598 26.12 223.758 26.7867 224.024 27.48C225.304 27.0533 226.691 26.5733 228.184 26.04C229.678 25.5067 231.064 25.24 232.344 25.24C233.624 25.24 234.664 25.6667 235.464 26.52C236.318 27.32 236.744 28.84 236.744 31.08C236.158 31.88 235.411 32.52 234.504 33C233.651 33.48 232.718 33.9067 231.704 34.28C230.744 34.6 229.731 34.9467 228.664 35.32C227.651 35.64 226.718 36.04 225.864 36.52C225.811 36.84 225.758 37.16 225.704 37.48C225.704 37.8 225.704 38.0933 225.704 38.36C225.704 39.2133 225.784 39.9867 225.944 40.68C226.104 41.32 226.291 41.96 226.504 42.6C226.718 43.24 226.931 43.88 227.144 44.52C227.358 45.16 227.518 45.8267 227.624 46.52C229.064 46.2 230.211 45.5867 231.064 44.68C231.918 43.7733 232.744 42.8667 233.544 41.96C234.344 41 235.251 40.1733 236.264 39.48C237.278 38.7333 238.638 38.36 240.344 38.36C240.771 39.16 241.064 39.9333 241.224 40.68C241.438 41.3733 241.544 42.0933 241.544 42.84C241.544 44.3867 241.144 45.8533 240.344 47.24C239.544 48.6267 238.531 49.9067 237.304 51.08C236.131 52.2533 234.824 53.3467 233.384 54.36C231.944 55.3733 230.584 56.3067 229.304 57.16C229.038 57.3733 228.744 57.56 228.424 57.72C228.158 57.9333 227.891 58.12 227.624 58.28C226.078 57.8 224.798 57.0267 223.784 55.96C222.824 54.8933 222.024 53.6667 221.384 52.28C220.798 50.84 220.291 49.2933 219.864 47.64C219.491 45.9333 219.144 44.2267 218.824 42.52L218.584 41.08C218.371 41.0267 218.104 41 217.784 41C216.878 41 216.158 41.1867 215.624 41.56C215.091 41.9333 214.371 42.12 213.464 42.12C213.251 42.12 213.064 42.12 212.904 42.12C212.744 42.0667 212.531 42.0133 212.264 41.96C211.571 40.84 210.851 39.7733 210.104 38.76C209.358 37.6933 208.851 36.3333 208.584 34.68C209.491 33.6133 210.558 32.7333 211.784 32.04C213.011 31.2933 214.371 30.68 215.864 30.2C215.864 29.3467 215.758 28.4133 215.544 27.4C215.384 26.3333 215.198 25.24 214.984 24.12C214.771 23 214.584 21.88 214.424 20.76C214.264 19.64 214.184 18.5733 214.184 17.56C214.184 15.9067 214.504 14.5467 215.144 13.48C215.838 12.36 217.144 11.8 219.064 11.8C219.758 11.8 220.504 11.88 221.304 12.04ZM278.435 57.24C277.048 57.1867 275.955 56.84 275.155 56.2C274.408 55.5067 273.795 54.68 273.315 53.72C272.888 52.76 272.515 51.72 272.195 50.6C271.928 49.4267 271.582 48.3333 271.155 47.32C269.608 47.96 268.328 48.76 267.315 49.72C266.355 50.6267 265.422 51.5333 264.515 52.44C263.608 53.2933 262.622 54.04 261.555 54.68C260.542 55.2667 259.262 55.56 257.715 55.56C257.555 55.56 257.368 55.56 257.155 55.56C256.995 55.5067 256.808 55.48 256.595 55.48C254.888 55.32 253.395 54.7867 252.115 53.88C250.835 52.92 249.768 51.7467 248.915 50.36C248.062 48.9733 247.395 47.4267 246.915 45.72C246.488 43.96 246.275 42.1733 246.275 40.36C246.275 37.64 246.755 35.0267 247.715 32.52C248.675 30.0133 250.142 27.9867 252.115 26.44C253.555 26.44 255.022 26.2533 256.515 25.88C258.008 25.4533 259.502 25.0267 260.995 24.6C262.488 24.12 263.928 23.6933 265.315 23.32C266.755 22.9467 268.088 22.76 269.315 22.76C270.702 22.76 271.928 23.1067 272.995 23.8C274.062 24.44 274.942 25.6133 275.635 27.32C275.848 27.8 275.955 28.4667 275.955 29.32C275.955 30.2267 275.875 31.1867 275.715 32.2C275.608 33.16 275.555 34.12 275.555 35.08C275.555 35.3467 275.555 35.5867 275.555 35.8C275.555 36.0133 275.582 36.2267 275.635 36.44C275.848 37.88 276.302 39.4 276.995 41C277.688 42.6 278.382 44.1733 279.075 45.72C279.822 47.2667 280.488 48.7333 281.075 50.12C281.662 51.5067 281.955 52.7333 281.955 53.8C281.955 54.7067 281.688 55.4533 281.155 56.04C280.675 56.6267 279.768 57.0267 278.435 57.24ZM255.715 47.32C258.915 46.8933 261.395 45.7467 263.155 43.88C264.968 42.0133 266.435 39.8267 267.555 37.32C266.915 35.8267 266.088 34.76 265.075 34.12C264.062 33.48 262.995 33.16 261.875 33.16C260.862 33.16 259.848 33.4 258.835 33.88C257.875 34.3067 256.995 34.92 256.195 35.72C255.448 36.52 254.835 37.4533 254.355 38.52C253.875 39.5867 253.635 40.7067 253.635 41.88C253.635 42.7867 253.795 43.6933 254.115 44.6C254.435 45.5067 254.968 46.4133 255.715 47.32ZM304.637 25.4C305.01 26.68 305.197 27.7733 305.197 28.68C305.197 29.96 304.877 30.9733 304.237 31.72C303.597 32.4667 302.824 33.4 301.917 34.52C303.624 35.1067 305.197 35.6933 306.637 36.28C308.13 36.8667 309.41 37.56 310.477 38.36C311.544 39.1067 312.37 40.0133 312.957 41.08C313.544 42.1467 313.837 43.48 313.837 45.08C313.837 45.2933 313.81 45.5067 313.757 45.72C313.757 45.88 313.757 46.0667 313.757 46.28C313.597 47.88 313.09 49.32 312.237 50.6C311.437 51.8267 310.37 52.8667 309.037 53.72C307.757 54.5733 306.317 55.24 304.717 55.72C303.117 56.1467 301.49 56.36 299.837 56.36C297.277 56.36 294.877 55.8533 292.637 54.84C290.397 53.7733 288.664 52.12 287.437 49.88C287.597 49.56 287.73 49.1867 287.837 48.76C287.944 48.28 288.024 47.8 288.077 47.32C288.13 46.84 288.157 46.3867 288.157 45.96C288.21 45.5333 288.237 45.2133 288.237 45C288.237 44.0933 287.97 43.4 287.437 42.92C286.904 42.44 286.29 41.9867 285.597 41.56C284.957 41.1333 284.344 40.6267 283.757 40.04C283.224 39.4 282.93 38.4667 282.877 37.24V36.76C282.877 35.1067 283.304 33.48 284.157 31.88C285.01 30.2267 286.13 28.76 287.517 27.48C288.957 26.1467 290.557 25.08 292.317 24.28C294.13 23.4267 295.97 23 297.837 23C299.01 23 300.157 23.1867 301.277 23.56C302.45 23.9333 303.57 24.5467 304.637 25.4ZM302.797 46.28V44.44H296.477V46.28H302.797ZM295.037 35.32L296.077 34.04L291.997 33.72V34.76L295.037 35.32Z" fill="white"/>
</svg>
