<svg width="33" height="32" viewBox="0 0 33 32" fill="none" xmlns="http://www.w3.org/2000/svg">
<path d="M11.6831 0.0294361C10.6286 0.126009 9.30911 0.415726 8.35645 0.766438C7.16436 1.20355 5.82452 1.96597 4.76488 2.80971C3.43523 3.86184 2.16672 5.45782 1.40256 7.01823C-0.838992 11.5978 -0.151244 17.0211 3.15504 20.8484C5.203 23.2272 7.93871 24.691 11.2093 25.1484C11.8054 25.2298 13.6699 25.2298 14.2915 25.1434C16.0847 24.8994 17.9136 24.264 19.3197 23.3949C19.5744 23.2373 19.8036 23.1052 19.8291 23.1052C19.8495 23.1052 21.8771 25.1078 24.3275 27.5526L28.7851 32L30.4765 30.3125L32.1729 28.62L27.7153 24.1725C25.2649 21.7277 23.2577 19.7048 23.2577 19.6845C23.2577 19.6641 23.4003 19.41 23.5735 19.1254C24.4599 17.6666 25.056 15.9436 25.3005 14.1595C25.3871 13.5394 25.3871 11.6791 25.3056 11.0844C24.8471 7.82639 23.3799 5.09187 21.0059 3.05368C19.1719 1.47802 16.9762 0.481802 14.5818 0.126009C13.8024 0.0141888 12.3963 -0.0366402 11.6831 0.0294361ZM14.2915 3.68394C17.3634 4.21763 19.9412 6.27107 21.1231 9.13266C22.7075 12.9549 21.5256 17.3464 18.2396 19.8319C15.9573 21.56 12.9771 22.114 10.2159 21.3211C8.15777 20.7315 6.35944 19.41 5.16225 17.6107C4.80054 17.0719 4.31657 16.0655 4.1077 15.4302C3.23655 12.7872 3.6492 9.87474 5.21828 7.54684C6.70586 5.33584 9.11043 3.89742 11.8207 3.58737C12.4167 3.52129 13.619 3.56704 14.2915 3.68394Z" fill="#454B54"/>
</svg>
