<svg width="154" height="140" viewBox="0 0 154 140" fill="none" xmlns="http://www.w3.org/2000/svg">
<path d="M74.703 0.35347C71.8783 1.67567 2.31221 41.4921 1.53091 42.2434C-0.993301 44.7375 -0.302148 48.7643 2.91322 50.3569C4.17532 51.018 4.59602 51.0481 11.0869 51.0481H17.9383L17.9984 93.9597L18.0885 136.901L18.8999 137.953C20.5827 140.177 15.5343 139.996 76.8366 139.996C138.139 139.996 133.09 140.177 134.773 137.953L135.585 136.901L135.675 93.9597L135.735 51.0481H142.586C149.077 51.0481 149.498 51.018 150.76 50.3569C154.005 48.7342 154.666 44.7375 152.142 42.2434C151.301 41.432 81.314 1.40523 78.8499 0.32341C77.7681 -0.127335 75.7548 -0.09729 74.703 0.35347ZM102.95 25.9261C117.164 34.0397 128.823 40.7108 128.823 40.801C128.793 40.9212 128.373 41.2517 127.832 41.5823C127.321 41.9128 126.57 42.634 126.209 43.205L125.518 44.2267V86.8378V129.479H76.8366H28.1553V86.8378V44.2267L27.4642 43.205C27.1036 42.634 26.3523 41.9128 25.8415 41.5823C25.3006 41.2517 24.8799 40.9212 24.8498 40.831C24.8498 40.6207 76.6262 11.1114 76.8666 11.1715C76.9868 11.2016 88.7064 17.8427 102.95 25.9261Z" fill="white"/>
<path d="M55.2305 46.5405C45.8248 47.8327 38.2822 54.2935 35.3674 63.5189C34.4058 66.5239 34.1954 71.8127 34.9166 74.968C37.561 87.0181 49.7614 100.39 70.3758 113.943C76.4159 117.91 77.1371 117.94 82.6963 114.364C103.07 101.262 116.082 87.0481 118.757 74.968C119.478 71.8127 119.267 66.5239 118.306 63.5189C115.09 53.2417 106.196 46.5405 95.7682 46.4804C92.0419 46.4504 90.0586 46.7809 86.8733 48.013C83.8683 49.1849 81.1337 50.9579 78.7297 53.3319L76.8366 55.195L74.9434 53.3319C69.7748 48.1933 62.2322 45.609 55.2305 46.5405ZM60.4592 57.0581C62.8933 57.4487 65.6279 58.8611 67.4309 60.634C69.9551 63.1282 71.0669 65.6224 71.698 70.2501C71.9985 72.6842 72.5394 73.6157 74.132 74.6975C75.5144 75.6591 78.1588 75.6591 79.5411 74.6975C81.2239 73.5556 81.6746 72.6842 82.1254 69.4988C82.9367 64.0898 85.461 60.2734 89.5778 58.2601C96.3091 54.9846 104.062 57.7192 107.398 64.5105C109.321 68.387 109.14 72.6842 106.857 77.3119C104.964 81.1583 102.559 84.2234 97.5712 89.2418C92.4626 94.3503 87.1137 98.7977 80.8633 103.035L76.8366 105.769L72.8098 103.035C66.5594 98.7977 61.2105 94.3503 56.102 89.2418C51.1136 84.2234 48.7096 81.1583 46.8165 77.3119C45.314 74.2768 44.8632 72.2034 45.0435 69.1082C45.1637 67.0948 45.3741 66.3135 46.2756 64.5105C48.1387 60.7542 51.4742 58.0497 55.2606 57.2083C57.6045 56.6975 58.2055 56.6975 60.4592 57.0581Z" fill="white"/>
</svg>
