<svg width="41" height="33" viewBox="0 0 41 33" fill="none" xmlns="http://www.w3.org/2000/svg">
<path d="M39.393 3.80843C38.7598 4.08928 38.1088 4.3263 37.4436 4.51873C38.2311 3.62809 38.8316 2.58013 39.1981 1.43335C39.2803 1.1763 39.1951 0.894932 38.9838 0.726815C38.7728 0.558568 38.4796 0.538415 38.2473 0.676107C36.8346 1.51396 35.3105 2.11608 33.7124 2.46818C32.1026 0.895192 29.9162 0 27.6559 0C22.8848 0 19.0032 3.8815 19.0032 8.65248C19.0032 9.02824 19.027 9.40192 19.074 9.77039C13.1536 9.25057 7.6494 6.34058 3.8697 1.70418C3.735 1.53892 3.52749 1.44986 3.31503 1.46689C3.10245 1.48353 2.91145 1.60341 2.80405 1.78765C2.03745 3.10307 1.63218 4.60754 1.63218 6.13827C1.63218 8.22315 2.37654 10.2013 3.69144 11.747C3.29163 11.6085 2.90365 11.4354 2.53335 11.2299C2.33455 11.1192 2.09193 11.1209 1.89443 11.2342C1.6968 11.3474 1.57289 11.5557 1.56769 11.7834C1.56678 11.8217 1.56678 11.8601 1.56678 11.899C1.56678 15.011 3.2417 17.8128 5.80246 19.3399C5.58246 19.3179 5.3626 19.2861 5.14416 19.2443C4.91897 19.2013 4.6874 19.2802 4.53553 19.452C4.38341 19.6236 4.33309 19.8629 4.40317 20.0813C5.35102 23.0406 7.79138 25.2172 10.7415 25.8809C8.29469 27.4134 5.49652 28.2162 2.55909 28.2162C1.94618 28.2162 1.32975 28.1801 0.726452 28.1088C0.426755 28.0731 0.14019 28.2501 0.0381236 28.5351C-0.0639425 28.8202 0.0442346 29.1381 0.299205 29.3016C4.07279 31.7211 8.43615 33 12.9173 33C21.7267 33 27.2376 28.8458 30.3094 25.3609C34.1398 21.0155 36.3366 15.2638 36.3366 9.58069C36.3366 9.34328 36.333 9.10352 36.3257 8.86454C37.8369 7.72595 39.138 6.34799 40.1968 4.76421C40.3576 4.52368 40.3402 4.20578 40.1539 3.98435C39.9678 3.7628 39.6577 3.69115 39.393 3.80843Z" fill="white"/>
</svg>
