<svg width="481" height="321" viewBox="0 0 481 321" fill="none" xmlns="http://www.w3.org/2000/svg">
<path d="M239.902 16.3464C161.962 16.3464 82.0117 61.4564 19.0717 151.676C17.2751 154.28 16.2906 157.358 16.2426 160.521C16.1945 163.683 17.0851 166.79 18.8017 169.446C67.1617 245.146 146.042 304.346 239.902 304.346C332.742 304.346 413.242 244.966 461.692 169.096C463.368 166.492 464.26 163.459 464.26 160.361C464.26 157.264 463.368 154.231 461.692 151.626C413.132 76.6264 332.042 16.3464 239.902 16.3464Z" stroke="#6C6868" stroke-width="32" stroke-linecap="round" stroke-linejoin="round"/>
<path d="M240.242 240.346C284.424 240.346 320.242 204.529 320.242 160.346C320.242 116.164 284.424 80.3464 240.242 80.3464C196.059 80.3464 160.242 116.164 160.242 160.346C160.242 204.529 196.059 240.346 240.242 240.346Z" stroke="#6C6868" stroke-width="32" stroke-miterlimit="10"/>
</svg>
