<svg width="163" height="140" viewBox="0 0 163 140" fill="none" xmlns="http://www.w3.org/2000/svg">
<path d="M66.0418 0.152004C63.1589 0.615917 61.4689 1.21238 58.7517 2.60412C52.6214 5.78523 47.8829 10.9877 44.3373 18.5428C41.6532 24.1761 40.626 29.3123 41.0567 34.6473C41.6201 40.9764 44.2379 43.9918 51.3291 46.3445C60.7399 49.4593 70.1507 47.7362 75.7177 41.8379C76.7118 40.7775 77.5733 39.5183 77.7722 38.7562C80.2243 30.2401 77.4739 4.42663 73.7295 0.914147C73.133 0.350823 72.4372 0.18514 70.3495 0.0525936C68.8915 -0.0468164 66.9696 0.0194569 66.0418 0.152004Z" fill="#504F6F"/>
<path d="M91.4904 0.152039C89.6679 0.450269 88.9057 1.17928 88.0442 3.4657C85.9897 8.96639 84.6642 18.3109 84.6311 28.02C84.598 38.2592 85.2275 40.4793 89.0714 43.4285C91.5898 45.3504 94.5389 46.7422 97.6207 47.438C104.679 48.9955 115.647 46.4108 119.259 42.335C121.313 39.9823 121.976 37.8284 122.109 32.9905C122.241 29.3786 122.142 28.4176 121.413 25.601C118.795 15.3286 112.101 6.41487 104.082 2.37219C100.636 0.649089 94.7046 -0.411284 91.4904 0.152039Z" fill="#504F6F"/>
<path d="M23.9249 36.6355C20.6444 37.497 19.4183 38.0604 16.3035 40.1148C11.83 43.0971 7.15776 48.6641 4.27487 54.463C1.45826 60.0631 -0.264847 67.552 0.0333831 72.7545C0.298476 77.2942 1.2263 79.7463 3.54587 82.0327C5.40152 83.8552 7.75422 84.9819 11.6975 85.976C19.2858 87.8979 27.835 85.247 34.3298 78.951C37.5772 75.803 38.1405 73.6491 38.1405 64.4703C38.1405 58.0418 37.776 53.9328 36.7157 47.5375C35.5559 40.645 34.0979 36.9337 32.3085 36.3041C30.7842 35.7739 26.5427 35.9396 23.9249 36.6355Z" fill="#504F6F"/>
<path d="M130.459 36.2047C128.537 36.5029 127.179 39.3858 125.886 45.7481C124.263 53.7671 123.567 67.6514 124.528 72.7213C125.058 75.6705 125.787 76.9628 128.305 79.2824C135.628 86.1416 143.879 88.1961 152.727 85.3795C154.45 84.8162 156.571 83.8884 157.399 83.3582C162.668 79.8457 163.761 70.7 160.15 59.9306C158.228 54.1648 155.278 49.0949 151.401 44.8534C145.503 38.4249 137.484 35.1112 130.459 36.2047Z" fill="#504F6F"/>
<path d="M78.2026 53.734C71.8073 55.5234 63.8213 60.2619 56.8958 66.3259C53.8803 68.9437 46.0932 77.3936 41.7854 82.6954C35.4563 90.4494 31.7119 97.3087 30.0219 104.135C28.9616 108.476 29.0278 114.507 30.2208 118.98C33.0042 129.683 39.7641 136.344 50.8649 139.392C53.085 140.022 53.9797 140.088 57.2603 139.922C59.3479 139.823 63.1586 139.359 65.7101 138.895C68.2616 138.464 72.6025 137.669 75.3197 137.205C81.5494 136.079 83.9021 136.178 95.0361 137.967C109.583 140.32 112.433 140.453 116.674 138.928C120.783 137.437 123.799 135.449 127.344 131.903C130.857 128.391 132.249 126.27 133.342 122.625C134.237 119.742 134.237 109.569 133.342 105.593C131.155 95.453 126.88 87.8648 116.774 76.1012C107.761 65.5969 97.0905 57.5447 87.9117 54.3636C84.6643 53.2369 80.8204 52.9719 78.2026 53.734Z" fill="#504F6F"/>
</svg>
