<svg width="150" height="152" viewBox="0 0 150 152" fill="none" xmlns="http://www.w3.org/2000/svg">
<path d="M92.121 0.457283C90.2319 1.07991 88.6726 1.96938 87.833 2.88849C87.4131 3.33322 86.9034 3.48147 85.614 3.48147C81.5958 3.51112 76.9479 5.37899 73.7693 8.28458C70.6807 11.0716 69.3613 14.3033 69.4213 19.0175C69.4213 21.4487 69.991 23.702 71.7602 28.179C72.4499 29.9579 73.3495 32.8338 73.7393 34.6127C74.6089 38.5264 75.2386 39.8013 77.0378 41.3727C78.6871 42.7958 80.7861 43.3888 82.5853 42.9144C84.9543 42.2918 87.623 39.5641 88.4327 36.8957C89.3623 33.8419 89.3323 32.9821 87.9829 23.0497C87.5631 19.9069 87.653 23.5241 88.1028 27.8528C88.7026 33.2786 88.4327 34.7017 86.5735 36.451C85.434 37.5183 84.3845 37.8741 82.3154 37.8741C80.0065 37.8741 78.0874 37.1922 76.7679 35.8876C75.5985 34.7017 75.0887 33.4564 74.1891 29.1574C73.8293 27.5563 73.0796 25.2141 72.4799 23.9688C69.5712 17.7426 69.6012 15.4596 72.5998 11.8424C74.9688 8.9665 78.777 6.80214 83.7848 5.43829C87.1133 4.54882 87.0833 4.54882 87.0833 5.11215C87.0833 5.82373 88.1928 5.64583 90.5017 4.54882C91.7012 3.9855 93.8003 3.21463 95.1796 2.85884C97.3686 2.29551 98.2383 2.23621 102.047 2.35481C108.943 2.592 112.272 3.95585 116.8 8.37352C117.939 9.50018 118.869 10.2414 118.869 10.0339C118.869 9.82632 117.61 8.43282 116.11 6.92073C113.771 4.60812 112.872 3.95585 110.473 2.76989C106.904 1.05026 103.366 0.279392 97.8784 0.0718498C94.43 -0.0763931 93.5904 -0.0170975 92.121 0.457283Z" fill="white"/>
<path d="M111.972 9.35195C111.972 9.82633 114.161 11.4274 115.78 12.1389C117.76 13.0284 120.968 13.147 125.796 12.554C128.855 12.1686 130.204 12.1389 131.403 12.3465C132.303 12.5244 133.113 12.7319 133.233 12.8209C133.382 12.8802 133.562 13.8882 133.652 15.0445C133.802 16.7345 133.682 17.7722 133.083 20.1441C132.663 21.7748 132.033 23.7316 131.643 24.5025C129.934 27.8232 123.637 32.1519 117.61 34.1384C114.971 35.0278 110.833 35.5022 105.975 35.5022C102.586 35.5022 102.376 35.5319 102.376 36.0952C102.376 36.5399 102.826 36.8068 104.565 37.3404C107.234 38.1706 111.942 38.2299 115.091 37.459C120.068 36.2731 125.076 33.6343 128.735 30.284C131.463 27.7639 132.393 26.1628 133.263 22.5457C133.712 20.5889 134.162 19.4918 134.852 18.6024C137.281 15.4596 137.221 15.6079 137.101 13.7696C136.921 11.5163 136.381 10.9233 134.942 11.4274C134.072 11.7535 133.652 11.7239 132.363 11.3088C131.074 10.8937 130.234 10.864 127.175 11.0419C125.166 11.1902 122.168 11.2791 120.518 11.3088C117.49 11.3088 116.74 11.1309 112.362 9.2037C112.152 9.11476 111.972 9.17406 111.972 9.35195Z" fill="white"/>
<path d="M104.146 11.7535C103.036 12.1093 101.987 12.7023 102.197 12.8801C102.286 12.9691 102.556 12.8801 102.826 12.6726C103.066 12.4651 104.236 12.2279 105.375 12.1389C106.545 12.0796 107.474 11.8721 107.474 11.7535C107.474 11.4274 105.225 11.457 104.146 11.7535Z" fill="white"/>
<path d="M108.973 14.0068C108.224 14.3922 106.964 14.7777 106.125 14.8963C102.646 15.3113 102.257 15.6375 103.756 16.7938C105.315 18.0094 108.674 17.3275 110.143 15.4596C110.773 14.6591 110.953 13.7103 110.563 13.4731C110.413 13.3842 109.723 13.6214 108.973 14.0068Z" fill="white"/>
<path d="M119.919 23.0793C119.589 23.5834 119.949 23.702 120.368 23.1979C120.608 22.9311 120.608 22.7532 120.428 22.7532C120.249 22.7532 120.009 22.9015 119.919 23.0793Z" fill="white"/>
<path d="M124.057 23.5537C123.517 23.8205 123.067 24.1467 123.067 24.2949C123.067 24.4135 123.547 24.2949 124.117 24.0281C124.686 23.7612 125.166 23.4351 125.166 23.2868C125.166 22.9904 125.226 22.9904 124.057 23.5537Z" fill="white"/>
<path d="M117.82 24.8286C117.73 24.9769 117.79 25.1251 117.939 25.1251C118.119 25.1251 118.269 24.9769 118.269 24.8286C118.269 24.6507 118.209 24.5321 118.149 24.5321C118.059 24.5321 117.91 24.6507 117.82 24.8286Z" fill="white"/>
<path d="M69.1215 39.5048C67.8621 40.9279 67.5322 41.6395 65.943 46.2054C65.1933 48.3698 64.2337 50.7714 63.7839 51.5126C61.7149 55.0408 57.4568 59.3695 50.1401 65.3882C44.2927 70.1913 41.564 72.919 36.8261 78.7895C34.3972 81.8137 30.7389 85.8163 27.3204 89.1962C20.2736 96.1341 17.9646 99.5437 15.9255 105.918C14.1264 111.64 12.8069 120.92 13.1368 125.724C13.2268 127.147 13.1968 128.303 13.0468 128.303C12.8969 128.303 12.0573 127.829 11.1877 127.206C6.56977 124.123 3.33123 121.039 2.2817 118.815C0.69242 115.435 1.20219 109.209 3.45117 104.821C3.99093 103.783 5.6102 101.293 7.07954 99.2472C10.2281 94.9481 10.9778 93.5843 11.8174 90.5897C12.627 87.8324 12.9569 81.8137 12.4471 78.9674C11.9373 76.0618 11.0677 74.4608 8.84874 72.2668C6.65973 70.1024 5.37031 69.3315 4.89052 69.8059C4.71061 69.9838 5.19039 70.7843 6.41983 72.2371C10.7679 77.396 12.2372 83.2072 10.2881 87.6842C9.92825 88.5143 8.15905 91.2717 6.38985 93.7918C4.59066 96.3416 2.76149 99.3361 2.25172 100.522C0.752393 104.11 0.0327181 108.231 0.00273164 113.33C-0.0272548 119.201 0.122677 119.616 3.96094 123.322C8.00912 127.236 10.558 129.015 13.4067 129.904C13.6766 129.993 13.9164 130.29 13.9164 130.556C13.9164 131.683 16.1654 135.211 17.8447 136.723C20.2736 138.888 24.4117 140.845 24.4117 139.836C24.4117 139.659 22.6725 137.82 20.5734 135.775C16.3454 131.624 15.1759 129.845 14.3363 126.346C13.8265 124.123 13.8865 122.551 14.6961 116.503C15.5357 110.277 17.5148 105.177 20.9933 100.404C21.9228 99.1583 24.7715 96.0451 27.3804 93.5546C30.2891 90.738 33.7075 86.9726 36.3763 83.6816C41.9538 76.8327 44.1128 74.6387 50.35 69.4501C60.8153 60.763 63.5141 57.0866 66.2728 47.7472C67.5922 43.2406 68.3119 41.5209 69.7213 39.4159C70.5609 38.1706 70.291 38.2002 69.1215 39.5048Z" fill="white"/>
<path d="M129.754 42.7958C127.055 43.8928 126.006 44.4858 124.387 45.909C123.277 46.8874 122.048 47.7472 121.658 47.8361C121.268 47.9547 119.979 47.7768 118.809 47.4804C114.221 46.3833 109.303 47.1542 104.805 49.7337C100.218 52.3428 99.3179 52.3428 93.3206 49.5261C89.8722 47.8954 89.6923 47.8658 89.3025 48.3995C88.6428 49.2889 88.4628 50.9493 88.8227 53.0543C89.1225 54.8036 90.1121 57.2645 93.2007 64.0541L93.9803 65.744L93.1407 65.5661C92.511 65.4179 88.073 63.7279 85.3742 62.5716C85.1643 62.4827 84.9844 62.542 84.9844 62.6902C84.9844 63.1053 90.412 65.3883 92.9608 66.0109C93.9204 66.2777 94.2802 66.5446 94.7 67.4044C95.1798 68.4421 95.1798 68.4717 94.67 68.2642C94.3702 68.1159 91.3715 67.9973 87.983 67.938L81.8358 67.8788L86.7236 68.1159C89.3924 68.2345 92.451 68.4421 93.4706 68.531L95.3297 68.7386L98.1784 74.105C99.7377 77.0699 101.057 79.5604 101.117 79.679C101.177 79.7976 100.487 80.1237 99.6178 80.4202C95.4497 81.7248 90.6518 85.6384 87.0835 90.5898C83.8149 95.126 74.4292 109.98 73.2297 112.471C69.7213 119.912 68.7018 126.643 69.8712 135.271C71.0107 144.047 72.7499 149.383 74.9689 151.103C75.9585 151.874 76.7381 151.874 78.2375 151.133C78.8972 150.807 80.1866 150.451 81.0862 150.362C81.9858 150.243 84.8345 149.68 87.3833 149.057C93.8004 147.516 96.7091 147.16 101.837 147.367C105.135 147.486 107.084 147.723 110.233 148.435C125.496 151.874 133.892 151.755 140.459 148.079C142.738 146.804 145.827 143.661 147.206 141.26C152.184 132.395 150.295 122.136 143.248 119.883C139.23 118.638 135.781 119.053 136.441 120.713C136.531 120.95 137.581 121.425 138.75 121.78C143.308 123.144 147.056 125.753 148.256 128.392C149.425 130.942 148.736 134.885 146.457 138.354C144.987 140.637 141.419 143.75 138.9 144.995C135.362 146.715 132.423 147.278 126.816 147.278C123.187 147.278 120.818 147.071 117.07 146.507C113.292 145.944 110.473 145.707 105.165 145.588C97.1889 145.41 95.1198 145.588 86.7836 147.278C80.3665 148.583 78.5973 148.553 76.1084 147.13C73.5296 145.618 72.3301 143.127 71.1906 136.901C69.5114 127.769 70.2611 122.136 74.0693 114.605C75.6886 111.433 83.4251 98.7135 86.2138 94.6516C90.0221 89.1073 93.8904 85.5791 99.138 82.9107C100.457 82.2288 101.597 81.4876 101.687 81.28C101.777 81.0132 102.047 81.1318 102.526 81.6951L103.216 82.4956L103.426 81.3986C103.726 79.7679 103.366 78.6116 101.657 75.8246C100.787 74.4311 99.228 71.7035 98.1784 69.7466C97.1589 67.7898 95.0299 63.9058 93.5006 61.1188C90.352 55.4559 89.1825 52.6689 89.1825 50.9196V49.7633L93.2607 51.7201C96.4092 53.2026 97.7286 53.677 99.108 53.7956C100.847 53.9734 101.027 53.9142 104.566 52.1649C106.575 51.1865 109.094 50.1488 110.173 49.8523C112.722 49.2 116.62 49.2593 119.319 49.9709C121.808 50.6528 122.707 50.4452 123.847 48.9628C124.836 47.6879 126.726 46.5019 130.234 44.9602C132.813 43.8335 133.113 43.7743 133.443 44.219C133.952 44.9009 135.602 51.5719 135.811 53.8845C135.961 55.189 135.871 56.4936 135.542 57.8871C135.302 59.0137 135.002 60.2887 134.912 60.7037C134.822 61.1188 135.062 60.852 135.422 60.1108C136.051 58.9248 136.111 58.3615 136.081 54.9222C136.051 51.5126 135.901 50.5045 134.882 46.3537C134.222 43.7446 133.592 41.5802 133.413 41.5506C133.263 41.4913 131.613 42.0546 129.754 42.7958Z" fill="white"/>
<path d="M89.4224 71.318C87.6232 71.5552 86.1838 71.8814 86.1838 72.0296C86.1838 72.2075 86.4837 72.2668 86.8735 72.1779C87.2334 72.0889 88.8226 71.8517 90.3819 71.6738C91.9412 71.4663 93.3506 71.1698 93.5305 71.0512C93.8604 70.7251 93.5005 70.7547 89.4224 71.318Z" fill="white"/>
<path d="M42.6434 97.5572C41.7138 97.9427 40.3344 98.6246 39.5847 99.0693C37.0059 100.552 31.6083 105.177 32.418 105.177C32.5979 105.177 34.517 104.317 36.6761 103.279C41.204 101.115 43.2431 100.611 46.5716 100.789C48.4907 100.908 49.3603 101.115 51.0096 101.916C53.6784 103.22 56.3772 105.918 57.7265 108.616C58.6261 110.395 58.7461 110.929 58.7461 112.886C58.7161 115.613 58.3862 116.355 53.7683 123.174C50.4698 128.036 49.5103 129.163 46.0618 132.157C44.5325 133.521 44.2027 133.966 44.2027 134.737C44.2027 135.982 44.5325 136.13 46.3017 135.686C47.6211 135.36 48.1609 135.389 51.5194 136.071C56.0773 137.02 58.2663 137.969 60.1854 139.807C61.7747 141.349 62.8842 143.127 62.5244 143.661C62.4044 143.839 61.6848 144.284 60.8751 144.61C58.6861 145.588 55.0278 145.677 48.0109 144.936C40.9341 144.195 39.8846 144.284 34.7569 146.211C32.8078 146.952 31.1585 147.604 31.0686 147.693C30.5588 148.227 31.8182 148.168 36.4362 147.427L41.5638 146.626L47.801 147.278C55.5375 148.108 60.5153 148.049 61.8047 147.1C63.9337 145.559 64.2036 142.831 62.5244 139.451C60.6052 135.597 56.3772 133.343 51.0995 133.343H49.3303L51.2795 130.645C53.8883 127.087 56.827 122.581 57.7565 120.743C61.3249 113.805 60.1854 106.126 54.8778 100.848C52.0291 98.0613 50.05 97.0829 46.7815 96.9643C44.7424 96.8753 44.0827 96.9643 42.6434 97.5572Z" fill="white"/>
<path d="M127.325 99.6327C124.986 102.034 124.027 103.754 123.157 107.104C122.677 108.883 122.617 110.514 122.617 118.815C122.617 128.629 122.797 130.556 123.877 133.047L124.327 134.085L124.746 133.195C125.286 131.95 125.256 130.23 124.566 126.079C123.727 121.009 123.727 112.471 124.566 109.15C125.196 106.689 126.875 102.953 128.645 100.077C130.354 97.2904 129.814 97.1125 127.325 99.6327Z" fill="white"/>
</svg>
